<?xml version="1.0" encoding="utf-8"?>
<!-- Generator: Adobe Illustrator 25.0.1, SVG Export Plug-In . SVG Version: 6.00 Build 0)  -->
<svg version="1.1" id="Layer_1" xmlns="http://www.w3.org/2000/svg" xmlns:xlink="http://www.w3.org/1999/xlink" x="0px" y="0px"
	 viewBox="0 0 708.7 708.7" style="enable-background:new 0 0 708.7 708.7;" xml:space="preserve">
<style type="text/css">
	.st0{fill:none;stroke:#231F20;stroke-width:4;stroke-miterlimit:10;}
	.st1{fill:none;stroke:#231F20;stroke-width:16;stroke-linecap:round;stroke-linejoin:round;}
	.st2{fill:#231F20;}
</style>
<g id="PLANTER">
	<rect x="-354.3" y="-388.3" class="st0" width="1417.3" height="1417.3"/>
	<path class="st1" d="M537.1,156.8c0,0,19.5,11.9,19.5,26.7v50.2c0,0,0.4,11.6-8.1,19.4c-30.3,27.7-92,42.7-194.1,42.7"/>
	<path class="st1" d="M354.3,120.4c137.7,0,195.9,33.7,195.9,56.1s-88.5,51.3-195.9,51.3"/>
	<path class="st1" d="M545.7,255.5l-40,279.3c0,0-5.9,55.7-151.4,55.7"/>
	<rect x="-354.3" y="-388.3" class="st0" width="1417.3" height="1417.3"/>
	<path class="st1" d="M171.6,156.8c0,0-19.5,11.9-19.5,26.7v50.2c0,0-0.4,11.6,8.1,19.4c30.3,27.7,91.9,42.7,194.1,42.7"/>
	<path class="st1" d="M354.3,120.4c-137.7,0-195.9,33.7-195.9,56.1s88.4,51.3,195.9,51.3"/>
	<path class="st1" d="M163,255.5l40,279.3c0,0,5.9,55.7,151.4,55.7"/>
</g>
<g id="TEXT">
	<circle class="st2" cx="349.8" cy="441.8" r="7.9"/>
	<path class="st2" d="M396,376.3c-8.6-7.7-19.9-11.5-34-11.5h-49.2v139.5h16.9v-46.7v-7.8v-15.8v-7.1v-46.1h29.8
		c10.8,0,18.8,2.2,24,6.7c5.1,4.4,7.7,11.1,7.7,20c0,8.9-2.6,15.5-7.7,20c-5.1,4.4-13.1,6.7-24,6.7h-9.7v15.8H362
		c14.1,0,25.4-3.8,34-11.5c8.6-7.7,12.9-18,12.9-31C408.9,394.3,404.6,384,396,376.3z"/>
</g>
<g id="Shadows">
	<line class="st1" x1="257.6" y1="172.8" x2="276.7" y2="222.1"/>
	<line class="st1" x1="214.7" y1="186.1" x2="224.2" y2="210.4"/>
	<line class="st1" x1="301.9" y1="164.1" x2="325" y2="222.1"/>
	<line class="st1" x1="346.4" y1="160.4" x2="371.4" y2="222.1"/>
	<line class="st1" x1="394.7" y1="162.4" x2="417.4" y2="218.7"/>
	<line class="st1" x1="444" y1="170" x2="463.1" y2="216"/>
	<line class="st1" x1="493.7" y1="180.1" x2="504.2" y2="206.7"/>
</g>
</svg>
