<svg xmlns="http://www.w3.org/2000/svg" viewBox="0 0 708.66 708.66"><defs><style>.cls-1,.cls-2,.cls-4{fill:none;}.cls-1,.cls-2,.cls-6{stroke:#231f20;}.cls-1,.cls-4{stroke-miterlimit:10;}.cls-1{stroke-width:4px;}.cls-2,.cls-6{stroke-linecap:round;stroke-linejoin:round;stroke-width:16px;}.cls-3{font-size:211.3px;font-family:WorkSans-Regular, Work Sans;letter-spacing:-0.02em;}.cls-3,.cls-5{fill:#231f20;}.cls-4{stroke:#fff;stroke-width:20px;}.cls-6{fill:#fff;}</style></defs><title>planter-alt</title><g id="PLANTER"><rect class="cls-1" x="-354.33" y="-388.33" width="1417.32" height="1417.32"/><path class="cls-2" d="M537.06,156.77s19.51,11.85,19.51,26.68v50.22s.39,11.59-8.14,19.39c-30.33,27.73-92,42.66-194.1,42.66"/><path class="cls-2" d="M354.33,120.36c137.67,0,195.87,33.73,195.87,56.14s-88.45,51.34-195.87,51.34"/><path class="cls-2" d="M545.68,255.46l-39.95,279.3s-5.92,55.65-151.4,55.65"/><rect class="cls-1" x="-354.33" y="-388.33" width="1417.32" height="1417.32"/><path class="cls-2" d="M171.6,156.77s-19.5,11.85-19.5,26.68v50.22s-.4,11.59,8.14,19.39c30.32,27.73,91.95,42.66,194.09,42.66"/><path class="cls-2" d="M354.33,120.36c-137.67,0-195.86,33.73-195.86,56.14s88.45,51.34,195.86,51.34"/><path class="cls-2" d="M163,255.46l40,279.3s5.92,55.65,151.4,55.65"/></g><g id="TEXT"><text class="cls-3" transform="translate(289.93 504.22)">P</text><line class="cls-4" x1="339.62" y1="415.97" x2="339.62" y2="470.21"/><circle class="cls-5" cx="349.77" cy="441.78" r="7.93"/></g><g id="Shadows"><line class="cls-6" x1="257.61" y1="172.77" x2="276.7" y2="222.11"/><line class="cls-6" x1="214.72" y1="186.1" x2="224.21" y2="210.37"/><line class="cls-6" x1="301.93" y1="164.13" x2="325.01" y2="222.11"/><line class="cls-6" x1="346.4" y1="160.37" x2="371.4" y2="222.11"/><line class="cls-6" x1="394.74" y1="162.37" x2="417.4" y2="218.71"/><line class="cls-6" x1="444.05" y1="170" x2="463.15" y2="216.01"/><line class="cls-6" x1="493.73" y1="180.1" x2="504.22" y2="206.7"/></g></svg>