<svg id="Layer_1" data-name="Layer 1" xmlns="http://www.w3.org/2000/svg" viewBox="0 0 92.11 139.24"><defs><style>.cls-1{fill:#fffde3;}.cls-2{fill:#dddac0;}.cls-3{fill:#5dc85a;}.cls-4{fill:#8edd8a;}.cls-5{fill:none;stroke:#000;stroke-miterlimit:10;stroke-width:3px;}</style></defs><title>planter-logo</title><path class="cls-1" d="M13.47,74.91c2.28,6.44,4,12.91,8.65,18.12a18,18,0,0,0,1.42,1.48q2.55,2.88.32-2.32c-.67,0-2.48,4.7-2.67,5.3a12.42,12.42,0,0,0-.44,6.11,9.12,9.12,0,0,0,.83,2.75q.78,3.6,2.15-1.65l9.55,3.89c-2.06-8.38-3.53-16.88-5.58-25.26L15.16,86.79l4.75,16.06c.72,2.43,2.36,5.77,2.43,8.34s-1.06,4.39-.29,6.89c1.47,4.8,5.5,5.82,10,6.06,5.37.3,10.76.78,16.15.81,8.67,0,17.75-1.31,20.26-10.89,1.23-4.7,1-9.64,1.31-14.45a103.68,103.68,0,0,1,2.23-16c.67-3.15-.91-7.41-4.54-8a145.75,145.75,0,0,0-42.53-.87c-6.87.9-9.31,10.53-1.73,12.77q15.57,4.6,31.35,8.38L58,83.38C51.92,82,41.28,80,37.11,86.06s1.06,13.08,6.28,16.23l5-11.88a34.5,34.5,0,0,0-8.75-1.08c-7.81,0-8.19,10.14-1.73,12.77l10.31,4.19L50,93.52a28.39,28.39,0,0,0-16.75,6.69c-4.61,4-8.95,11.16-3.63,16.51,3.38,3.4,10.56,3.86,14.82,1.91a7.24,7.24,0,0,0,4.11-7.56,7.48,7.48,0,0,0-1.72-3.79A4.83,4.83,0,0,0,45,105.6q-1.74-1.32.46.52l-3.89,9.54c5.47-1.35,13-2.19,17.35-6.09,4-3.57,3.49-8.55,5.2-13.13,1.55-4.15,4.51-7.72,6.56-11.63a33.29,33.29,0,0,0,2.77-6.71c.33-1.24.41-2.51.67-3.76-.48,2.3.09.35.31-.93.56-3.29-.84-7.21-4.54-8-16.16-3.4-34-1.19-50.13,1.23-3.49.52-5.35,4.89-4.54,8,1,3.73,4.55,5.06,8,4.54a179.35,179.35,0,0,1,22.07-2.11c6.72-.16,14.92-.42,21.14.88l-4.54-8a34.49,34.49,0,0,1-2.77,8.92C57.37,82,55.27,85,53.64,88.19A38.49,38.49,0,0,0,51.55,93c-.58,1.69-.53,3.9-1.25,5.48-1,2.19-2,2-4.57,2.67s-5.09,1.36-7.64,2c-4.21,1-5.83,6-3.89,9.55a10.62,10.62,0,0,0,2.07,2.55c1.08,1.06,1.42,1.94.24,0l-.65-5-.23.75,4.54-4.54c-.64.17-2.12-.09-2.58.19q1,7.17,3.2,4.31a16.53,16.53,0,0,1,1.61-1.52A14.39,14.39,0,0,1,50,106.52c7.56-.63,8.52-10,1.73-12.77L41.38,89.56l-1.73,12.77a19.64,19.64,0,0,1,5.29.62c7.12,1.8,11.39-8,5-11.88-1.27-1.32-1.81-.81-1.61,1.55l-3.89,3c3.2-1,6.86-.42,10.06.32C62.64,97.8,66.12,85.33,58,83.38Q42.18,79.6,26.61,75L24.89,87.77A134.69,134.69,0,0,1,64,88.18l-4.54-8a136.76,136.76,0,0,0-2.36,14.93c-.48,4.87,0,10-1,14.77-.47,2.25-.33,1.7-2.58,1.84s-4.63.26-7,.2-4.7-.22-7-.37c-1.35-.08-6.7.38-7.62-.23l3,3.89-.23.9a7.74,7.74,0,0,0,.53-2.27,15,15,0,0,0,.15-3.48c-.21-3.09-1.38-6.14-2.25-9.08l-5.31-18c-2.38-8-14.54-4.68-12.54,3.46,2.06,8.38,3.52,16.88,5.58,25.25,1,4.19,6,5.85,9.55,3.89,4.18-2.29,5.59-7.2,4.34-11.67-.67-2.44-1.17-2.58.09-4.89,1.15-2.1,2.19-4.14,2.17-6.59,0-4.83-4-6.56-6.45-10.08-2.27-3.3-3.12-7.52-4.44-11.24C23.23,63.63,10.66,67,13.47,74.91Z"/><path class="cls-2" d="M18.85,73.24a238.31,238.31,0,0,0,49-2c4-.59,2.61-6.31-.9-6.63-14.51-1.29-29-3.69-43.28.74-4.14,1.28-2.37,7.8,1.79,6.51,13.66-4.25,27.61-1.74,41.49-.5l-.89-6.63a230.06,230.06,0,0,1-47.21,1.75c-4.34-.25-4.33,6.5,0,6.75Z"/><path class="cls-3" d="M60.64,27.94c-7.13-.26-16.51,3-17.47,11.15-.31,2.69-.64,5.92,2,7.6C47.89,48.49,51,47,53,44.87A1.52,1.52,0,0,0,52,42.31c-1.26,0-5.74,2.42-5.95,2.21L46.42,46c.7-3.23,2.64-6.55,3.91-9.61.54-1.3-1.17-2.23-2.21-1.69a5,5,0,0,0-2.49,2.68l2.74,1.16c1.06-6.3,10.4-7.54,15.48-8.44l-1.16-2.74c-3.94,2.78-6.43,7-8,11.52-.23.66-1.9,3.89-3,4.26-2.36.79-1.92-1.42-1-2.44,1.68-1.83,3.56-3.18,4.59-5.5.35-.79.16-2-.89-2.21-2.52-.4-4.38,1.46-5.41,3.72-1.17,2.58.08,4.7,2.46,5.88a1.52,1.52,0,0,0,2.2-.9A34.17,34.17,0,0,1,59.38,31.6c.86-1,.08-3.08-1.46-2.5-5.54,2.06-7.94,7-9.58,12.4-.57,1.84,2.33,2.64,2.89.79,1.29-4.21,3-8.64,7.49-10.3l-1.46-2.51a38.7,38.7,0,0,0-6.44,11.4L53,40q-1.71-2.91.64-4.11l-.9-2.21c-1.38,3.1-5.68,4.88-6.27,8.32-.41,2.44,2.62,4.27,4.85,4.33s4.87-3.11,5.8-5,1.17-3.85,2.37-5.76c1.39-2.2,2.55-4.09,4.7-5.61a1.51,1.51,0,0,0-1.16-2.74c-6.23,1.1-16.29,2.93-17.57,10.53-.26,1.53,2,2.84,2.74,1.16l1.42-1.61-2.21-1.7c-1.09,2.66-2.22,5.3-3.29,8-.44,1.09-1,2.07-.23,3.1,2.05,2.61,5.94-1.4,8.07-1.33l-1.06-2.56L49.61,44,46,42.33a5.21,5.21,0,0,1,.1-1.79,8.93,8.93,0,0,1,3-6.15c3-2.82,7.53-3.6,11.52-3.45,1.93.07,1.92-2.93,0-3Z"/><path class="cls-4" d="M46,39.43c.31-2.79,3.71-5.23,6-6.41a33,33,0,0,1,7.67-2.94c1.88-.43,1.08-3.33-.8-2.89-6,1.4-15.06,5.2-15.84,12.24-.21,1.92,2.79,1.9,3,0Z"/><path class="cls-5" d="M75.06,70c-.65,4.06-6.07,38-8.68,49.69,0,.07,0,.17,0,.19-.55,2.32-9.89,4-22.13,4s-21.2-1.79-22.13-4a1,1,0,0,1,0-.17C19.56,108,14,74,13.36,70c1.06,3,14.47,5.45,30.84,5.45S74,73.05,75.06,70Z"/><path class="cls-5" d="M75.12,69.62a1.26,1.26,0,0,1-.06.38h0c-1.07,3-14.47,5.45-30.86,5.45S14.42,73.05,13.36,70h0a.5.5,0,0,1,0-.16h0a.78.78,0,0,1,0-.21c0-3.24,13.84-5.85,30.91-5.85S75.12,66.38,75.12,69.62Z"/><path class="cls-5" d="M43.38,75.91c.23-.68.21-1.06-.45-4.14-.6-2.79-2.62-5-4.08-7.49S36.18,59,36.71,56.19a10,10,0,0,1,2-4.1,15.92,15.92,0,0,1,5.71-4.62"/><path class="cls-5" d="M57.57,27.93a25.87,25.87,0,0,0-9,3.23,12.77,12.77,0,0,0-6,8.55,17.21,17.21,0,0,0,.19,5.49c.25,1.22.38,2.13,1.34,2.84,1.35,1,6.14-.17,8-1a9.62,9.62,0,0,0,4.56-3.81c1.51-2.56,1.31-5.14,2.37-7.81.94-2.35,4-5.1,6.49-6.11S62.93,26.86,57.57,27.93Z"/></svg>